# xmcd CD Database Entry
#
# Track frame offsets:
# 150
# 16736
# 36627
# 64115
# 88993
# 122566
# 144510
# 180768
# 210211
# 232458
# 254402
# 272525
#
# Disc length: 3907 seconds
#
# Revision: 4
# Processed by: cddbd v1.4b41PL1 Copyright (c) Steve Scherf et al.
# Submitted via: tcd 2.0b
#
DISCID=a60f410c
DTITLE=Shelter Belt - Nothing Makes Me Sad Ever
DYEAR=1900
DGENRE=
TTITLE0=I Care About That
TTITLE1=Math
TTITLE2=Six
TTITLE3=Mezcal
TTITLE4=Gastonnbridge
TTITLE5=Bomb
TTITLE6=Take
TTITLE7=Alibi
TTITLE8=Kiss Me, I'm Cancer
TTITLE9=Sally-O
TTITLE10=What Would You
TTITLE11=Dollay
EXTD=
EXTT0=
EXTT1=
EXTT2=
EXTT3=
EXTT4=
EXTT5=
EXTT6=
EXTT7=
EXTT8=
EXTT9=
EXTT10=
EXTT11=
PLAYORDER=
